<svg xmlns="http://www.w3.org/2000/svg" x="0px" y="0px" width="100" height="100" viewBox="0 0 24 24"><linearGradient id="mm2WBer3sbc1apKZQr_EYa_Lvq129LtPFaK_gr1" x1="4.386" x2="19.613" y1="5.33" y2="20.557" gradientUnits="userSpaceOnUse"><stop offset="0" stop-color="#fff" stop-opacity=".6"></stop><stop offset="1" stop-color="#fff" stop-opacity=".3"></stop></linearGradient><path fill="url(#mm2WBer3sbc1apKZQr_EYa_Lvq129LtPFaK_gr1)" d="M19.952,5.672c-1.904-1.531-4.916-1.79-5.044-1.801c-0.201-0.017-0.392,0.097-0.474,0.281 c-0.006,0.012-0.072,0.163-0.145,0.398c1.259,0.212,2.806,0.64,4.206,1.509c0.224,0.139,0.293,0.434,0.154,0.659 c-0.09,0.146-0.247,0.226-0.407,0.226c-0.086,0-0.173-0.023-0.252-0.072C15.584,5.38,12.578,5.305,12,5.305S8.415,5.38,6.011,6.872 c-0.225,0.14-0.519,0.07-0.659-0.154c-0.14-0.225-0.07-0.519,0.154-0.659c1.4-0.868,2.946-1.297,4.206-1.509 c-0.074-0.236-0.14-0.386-0.145-0.398c-0.083-0.184-0.273-0.3-0.475-0.28c-0.127,0.01-3.139,0.269-5.069,1.822 C3.015,6.625,1,12.073,1,16.783c0,0.083,0.022,0.165,0.063,0.237c1.391,2.443,5.185,3.083,6.05,3.111c0.005,0,0.01,0,0.015,0 c0.153,0,0.297-0.073,0.387-0.197l0.875-1.202c-2.359-0.61-3.564-1.645-3.634-1.706c-0.198-0.175-0.217-0.477-0.042-0.675 s0.476-0.217,0.674-0.043c0.029,0.026,2.248,1.909,6.612,1.909c4.372,0,6.591-1.891,6.613-1.91c0.198-0.172,0.5-0.154,0.674,0.045 c0.174,0.198,0.155,0.499-0.042,0.673c-0.07,0.062-1.275,1.096-3.634,1.706l0.875,1.202c0.09,0.124,0.234,0.197,0.387,0.197 c0.005,0,0.01,0,0.015,0c0.865-0.027,4.659-0.667,6.05-3.111C22.978,16.947,23,16.866,23,16.783 C23,12.073,20.985,6.625,19.952,5.672z"></path><linearGradient id="mm2WBer3sbc1apKZQr_EYb_Lvq129LtPFaK_gr2" x1="4.386" x2="19.613" y1="5.33" y2="20.557" gradientUnits="userSpaceOnUse"><stop offset="0" stop-color="#fff" stop-opacity=".6"></stop><stop offset=".493" stop-color="#fff" stop-opacity="0"></stop><stop offset=".997" stop-color="#fff" stop-opacity=".3"></stop></linearGradient><path fill="url(#mm2WBer3sbc1apKZQr_EYb_Lvq129LtPFaK_gr2)" d="M17.191,4.84 c0.822,0.252,1.716,0.632,2.422,1.199c0.861,0.794,2.887,6.076,2.891,10.732c-1.284,2.257-4.96,2.838-5.613,2.867l-0.455-0.626 c2.041-0.654,3.093-1.571,3.141-1.613c0.403-0.356,0.442-0.974,0.087-1.377c-0.185-0.212-0.453-0.334-0.736-0.334 c-0.236,0-0.465,0.085-0.64,0.238c-0.021,0.018-2.157,1.79-6.288,1.79c-4.139,0-6.264-1.769-6.282-1.785 c-0.179-0.157-0.408-0.243-0.645-0.243c-0.28,0-0.548,0.121-0.734,0.331c-0.357,0.404-0.319,1.023,0.088,1.383 c0.123,0.108,1.166,0.981,3.143,1.613l-0.442,0.615C6.458,19.61,2.78,19.025,1.5,16.783c0-4.667,2.009-9.933,2.836-10.699 c0.718-0.577,1.611-0.966,2.43-1.225C6.224,5.082,5.715,5.341,5.241,5.635c-0.457,0.286-0.598,0.89-0.313,1.348 c0.18,0.289,0.491,0.461,0.831,0.461c0.182,0,0.361-0.051,0.515-0.147C8.563,5.877,11.445,5.805,12,5.805 c0.555,0,3.437,0.072,5.726,1.492c0.155,0.096,0.333,0.147,0.516,0.147c0.342,0,0.654-0.173,0.832-0.463 c0.283-0.459,0.142-1.063-0.316-1.347C18.274,5.333,17.75,5.068,17.191,4.84 M14.868,3.869c-0.186,0-0.358,0.111-0.434,0.283 c-0.006,0.012-0.072,0.163-0.145,0.398c1.259,0.212,2.806,0.64,4.206,1.509c0.224,0.139,0.293,0.434,0.154,0.659 c-0.09,0.146-0.247,0.226-0.407,0.226c-0.086,0-0.173-0.023-0.252-0.072C15.584,5.38,12.578,5.305,12,5.305S8.415,5.38,6.011,6.872 C5.932,6.921,5.845,6.944,5.759,6.944c-0.16,0-0.316-0.081-0.407-0.226c-0.14-0.225-0.07-0.519,0.154-0.659 c1.4-0.868,2.946-1.297,4.206-1.509c-0.074-0.236-0.14-0.386-0.145-0.398C9.49,3.982,9.322,3.87,9.137,3.87 c-0.015,0-0.03,0.001-0.045,0.002c-0.127,0.01-3.139,0.269-5.069,1.822C3.015,6.625,1,12.073,1,16.783 c0,0.083,0.022,0.165,0.063,0.237c1.391,2.443,5.185,3.083,6.05,3.111c0.005,0,0.01,0,0.015,0c0.153,0,0.297-0.073,0.387-0.197 l0.875-1.202c-2.359-0.61-3.564-1.645-3.634-1.706c-0.198-0.175-0.217-0.477-0.042-0.675c0.095-0.107,0.227-0.162,0.359-0.162 c0.112,0,0.224,0.039,0.315,0.119c0.029,0.026,2.248,1.909,6.612,1.909c4.372,0,6.591-1.891,6.613-1.91 c0.091-0.079,0.203-0.118,0.315-0.118c0.133,0,0.265,0.055,0.359,0.163c0.174,0.198,0.155,0.499-0.042,0.673 c-0.07,0.062-1.275,1.096-3.634,1.706l0.875,1.202c0.09,0.124,0.234,0.197,0.387,0.197c0.005,0,0.01,0,0.015,0 c0.865-0.027,4.659-0.667,6.05-3.111C22.978,16.947,23,16.866,23,16.783c0-4.71-2.015-10.158-3.048-11.111 c-1.904-1.531-4.916-1.79-5.044-1.801C14.895,3.87,14.882,3.869,14.868,3.869L14.868,3.869z"></path><linearGradient id="mm2WBer3sbc1apKZQr_EYc_Lvq129LtPFaK_gr3" x1="7.62" x2="10.162" y1="11.686" y2="14.228" gradientUnits="userSpaceOnUse"><stop offset="0" stop-color="#fff" stop-opacity=".7"></stop><stop offset=".519" stop-color="#fff" stop-opacity=".45"></stop><stop offset="1" stop-color="#fff" stop-opacity=".55"></stop></linearGradient><ellipse cx="8.891" cy="12.957" fill="url(#mm2WBer3sbc1apKZQr_EYc_Lvq129LtPFaK_gr3)" rx="1.674" ry="1.913"></ellipse><linearGradient id="mm2WBer3sbc1apKZQr_EYd_Lvq129LtPFaK_gr4" x1="13.838" x2="16.38" y1="11.686" y2="14.228" gradientUnits="userSpaceOnUse"><stop offset="0" stop-color="#fff" stop-opacity=".7"></stop><stop offset=".519" stop-color="#fff" stop-opacity=".45"></stop><stop offset="1" stop-color="#fff" stop-opacity=".55"></stop></linearGradient><ellipse cx="15.109" cy="12.957" fill="url(#mm2WBer3sbc1apKZQr_EYd_Lvq129LtPFaK_gr4)" rx="1.674" ry="1.913"></ellipse></svg>
