<svg xmlns="http://www.w3.org/2000/svg" x="0px" y="0px" width="100" height="100" viewBox="0 0 24 24"><linearGradient id="OyoeWQjw-qSKotgwO1I0ga_vjqZo0sZlesU_gr1" x1="4.929" x2="19.071" y1="4.929" y2="19.071" gradientUnits="userSpaceOnUse"><stop offset="0" stop-color="#fff" stop-opacity=".6"></stop><stop offset="1" stop-color="#fff" stop-opacity=".3"></stop></linearGradient><circle cx="12" cy="12" r="10" fill="url(#OyoeWQjw-qSKotgwO1I0ga_vjqZo0sZlesU_gr1)"></circle><linearGradient id="OyoeWQjw-qSKotgwO1I0gb_vjqZo0sZlesU_gr2" x1="4.929" x2="19.071" y1="4.929" y2="19.071" gradientUnits="userSpaceOnUse"><stop offset="0" stop-color="#fff" stop-opacity=".6"></stop><stop offset=".493" stop-color="#fff" stop-opacity="0"></stop><stop offset=".997" stop-color="#fff" stop-opacity=".3"></stop></linearGradient><path fill="url(#OyoeWQjw-qSKotgwO1I0gb_vjqZo0sZlesU_gr2)" d="M12,2.5c5.238,0,9.5,4.262,9.5,9.5 s-4.262,9.5-9.5,9.5S2.5,17.238,2.5,12S6.762,2.5,12,2.5 M12,2C6.477,2,2,6.477,2,12s4.477,10,10,10s10-4.477,10-10S17.523,2,12,2 L12,2z"></path><linearGradient id="OyoeWQjw-qSKotgwO1I0gc_vjqZo0sZlesU_gr3" x1="6.177" x2="17.823" y1="7.073" y2="18.718" gradientUnits="userSpaceOnUse"><stop offset="0" stop-color="#fff" stop-opacity=".7"></stop><stop offset=".519" stop-color="#fff" stop-opacity=".45"></stop><stop offset="1" stop-color="#fff" stop-opacity=".55"></stop></linearGradient><path fill="url(#OyoeWQjw-qSKotgwO1I0gc_vjqZo0sZlesU_gr3)" d="M17,7.625C17,7.15,16.968,6.567,16.75,6	c0,0-1.426,0.01-2.771,1.284C13.358,7.103,12.694,7,12,7c-0.694,0-1.358,0.103-1.979,0.284C8.676,6.01,7.25,6,7.25,6	C7.033,6.567,7,7.15,7,7.625c0,0.719,0.128,1.16,0.205,1.378C6.452,9.839,6,10.874,6,12c0,2.186,1.655,3.531,4,4	c-0.527,0.463-0.85,1.11-0.953,1.836C8.824,17.944,8.5,18,8.125,18c-0.301,0-0.886-0.142-1.431-0.991C6.474,16.665,6,16,5.375,16	C5.253,16,4.996,15.992,5,16.181c0.002,0.09,0.14,0.091,0.435,0.354C5.682,16.756,5.912,17.118,6,17.5	c0.145,0.627,0.726,1.875,2.125,1.875C8.625,19.375,9,19.25,9,19.25v2.291C9.947,21.838,10.955,22,12,22s2.053-0.162,3-0.459V18.25	c0-0.899-0.374-1.7-1-2.25c2.345-0.469,4-1.814,4-4c0-1.106-0.436-2.125-1.166-2.953C16.897,8.852,17,8.4,17,7.625z"></path></svg>
