<svg xmlns="http://www.w3.org/2000/svg" x="0px" y="0px" width="100" height="100" viewBox="0 0 24 24"><linearGradient id="mopMJPj4gEn1qwz1b_kPRa_Iot2tdslCwI5_gr1" x1="3.879" x2="20.121" y1="3.879" y2="20.121" gradientUnits="userSpaceOnUse"><stop offset="0" stop-color="#fff" stop-opacity=".6"></stop><stop offset="1" stop-color="#fff" stop-opacity=".3"></stop></linearGradient><path fill="url(#mopMJPj4gEn1qwz1b_kPRa_Iot2tdslCwI5_gr1)" d="M18,21H6c-1.657,0-3-1.343-3-3V6c0-1.657,1.343-3,3-3h12c1.657,0,3,1.343,3,3v12 C21,19.657,19.657,21,18,21z"></path><linearGradient id="mopMJPj4gEn1qwz1b_kPRb_Iot2tdslCwI5_gr2" x1="3.879" x2="20.121" y1="3.879" y2="20.121" gradientUnits="userSpaceOnUse"><stop offset="0" stop-color="#fff" stop-opacity=".6"></stop><stop offset=".493" stop-color="#fff" stop-opacity="0"></stop><stop offset=".997" stop-color="#fff" stop-opacity=".3"></stop></linearGradient><path fill="url(#mopMJPj4gEn1qwz1b_kPRb_Iot2tdslCwI5_gr2)" d="M18,3.5c1.379,0,2.5,1.122,2.5,2.5v12 c0,1.378-1.121,2.5-2.5,2.5H6c-1.379,0-2.5-1.122-2.5-2.5V6c0-1.378,1.121-2.5,2.5-2.5H18 M18,3H6C4.343,3,3,4.343,3,6v12 c0,1.657,1.343,3,3,3h12c1.657,0,3-1.343,3-3V6C21,4.343,19.657,3,18,3L18,3z"></path><linearGradient id="mopMJPj4gEn1qwz1b_kPRc_Iot2tdslCwI5_gr3" x1="6.771" x2="17.148" y1="6.953" y2="17.329" gradientUnits="userSpaceOnUse"><stop offset="0" stop-color="#fff" stop-opacity=".7"></stop><stop offset=".519" stop-color="#fff" stop-opacity=".45"></stop><stop offset="1" stop-color="#fff" stop-opacity=".55"></stop></linearGradient><path fill="url(#mopMJPj4gEn1qwz1b_kPRc_Iot2tdslCwI5_gr3)" d="M17.641,16.351l-3.734-5.262l2.905-3.412	C17.039,7.41,16.849,7,16.499,7h-1.355c-0.243,0-0.473,0.107-0.631,0.291l-1.8,2.115l-1.46-2.057C11.097,7.13,10.845,7,10.577,7	H6.895C6.561,7,6.367,7.377,6.56,7.649l3.478,4.9l-3.213,3.774C6.598,16.59,6.787,17,7.138,17h1.355	c0.243,0,0.473-0.107,0.631-0.292l2.108-2.477l1.717,2.419C13.104,16.87,13.356,17,13.625,17h3.682	C17.64,17,17.835,16.623,17.641,16.351z M13.971,15.5l-4.968-7h1.226l4.968,7H13.971z"></path></svg>
